<?xml version="1.0" encoding="UTF-8" standalone="no"?>
<svg
   xmlns:dc="http://purl.org/dc/elements/1.1/"
   xmlns:cc="http://creativecommons.org/ns#"
   xmlns:rdf="http://www.w3.org/1999/02/22-rdf-syntax-ns#"
   xmlns:svg="http://www.w3.org/2000/svg"
   xmlns="http://www.w3.org/2000/svg"
   xmlns:xlink="http://www.w3.org/1999/xlink"
   xmlns:sodipodi="http://sodipodi.sourceforge.net/DTD/sodipodi-0.dtd"
   xmlns:inkscape="http://www.inkscape.org/namespaces/inkscape"
   inkscape:export-ydpi="100.05759"
   inkscape:export-xdpi="100.05759"
   inkscape:export-filename="/home/user/bliss.png"
   sodipodi:docname="26327-bliss.svg"
   inkscape:version="1.0.2 (e86c870879, 2021-01-15)"
   sodipodi:version="0.32"
   id="svg1332"
   height="482.25311"
   width="643.99933"
   version="1.1">
  <defs
     id="defs3">
    <linearGradient
       id="linearGradient6817">
      <stop
         id="stop6819"
         offset="0"
         style="stop-color:#ffffff;stop-opacity:1;" />
      <stop
         id="stop6821"
         offset="1"
         style="stop-color:#ffffff;stop-opacity:0;" />
    </linearGradient>
    <linearGradient
       id="linearGradient3751">
      <stop
         id="stop3753"
         offset="0"
         style="stop-color:#84c100;stop-opacity:1;" />
      <stop
         id="stop3755"
         offset="1"
         style="stop-color:#84c100;stop-opacity:0;" />
    </linearGradient>
    <linearGradient
       id="linearGradient3733">
      <stop
         id="stop3735"
         offset="0.0000000"
         style="stop-color:#005ce0;stop-opacity:1.0000000;" />
      <stop
         id="stop3737"
         offset="1.0000000"
         style="stop-color:#d8edff;stop-opacity:1.0000000;" />
    </linearGradient>
    <linearGradient
       id="linearGradient2205">
      <stop
         id="stop2207"
         offset="0.0000000"
         style="stop-color:#242a00;stop-opacity:1.0000000;" />
      <stop
         id="stop2213"
         offset="0.50000000"
         style="stop-color:#71a300;stop-opacity:1.0000000;" />
      <stop
         id="stop2209"
         offset="1.0000000"
         style="stop-color:#001700;stop-opacity:1.0000000;" />
    </linearGradient>
    <linearGradient
       gradientUnits="userSpaceOnUse"
       y2="616.15045"
       x2="91.528717"
       y1="91.104607"
       x1="91.528717"
       gradientTransform="matrix(1.392028,0,0,0.718376,179.4184,-99.39007)"
       id="linearGradient3739"
       xlink:href="#linearGradient3733"
       inkscape:collect="always" />
    <linearGradient
       gradientUnits="userSpaceOnUse"
       y2="848.7569"
       x2="98.874992"
       y1="556.32819"
       x1="4.9757171"
       gradientTransform="scale(2.121916,0.471272)"
       id="linearGradient3757"
       xlink:href="#linearGradient3751"
       inkscape:collect="always" />
    <linearGradient
       gradientUnits="userSpaceOnUse"
       y2="870.97784"
       x2="134.29718"
       y1="366.6221"
       x1="228.32127"
       gradientTransform="scale(1.657739,0.603231)"
       id="linearGradient3765"
       xlink:href="#linearGradient2205"
       inkscape:collect="always" />
    <linearGradient
       gradientUnits="userSpaceOnUse"
       y2="687.92188"
       x2="216.70049"
       y1="-53.053421"
       x1="216.70049"
       gradientTransform="scale(1.583127,0.631661)"
       id="linearGradient6823"
       xlink:href="#linearGradient6817"
       inkscape:collect="always" />
    <linearGradient
       gradientUnits="userSpaceOnUse"
       y2="687.92188"
       x2="216.70049"
       y1="-53.053421"
       x1="216.70049"
       gradientTransform="scale(1.583127,0.631661)"
       id="linearGradient6825"
       xlink:href="#linearGradient6817"
       inkscape:collect="always" />
    <linearGradient
       gradientUnits="userSpaceOnUse"
       y2="687.92188"
       x2="216.70049"
       y1="-53.053421"
       x1="216.70049"
       gradientTransform="scale(1.583127,0.631661)"
       id="linearGradient6827"
       xlink:href="#linearGradient6817"
       inkscape:collect="always" />
    <linearGradient
       gradientUnits="userSpaceOnUse"
       y2="687.92188"
       x2="216.70049"
       y1="-53.053421"
       x1="216.70049"
       gradientTransform="scale(1.583127,0.631661)"
       id="linearGradient6829"
       xlink:href="#linearGradient6817"
       inkscape:collect="always" />
    <linearGradient
       gradientUnits="userSpaceOnUse"
       y2="687.92188"
       x2="216.70049"
       y1="-53.053421"
       x1="216.70049"
       gradientTransform="scale(1.583127,0.631661)"
       id="linearGradient6831"
       xlink:href="#linearGradient6817"
       inkscape:collect="always" />
    <linearGradient
       gradientUnits="userSpaceOnUse"
       y2="687.92188"
       x2="216.70049"
       y1="-53.053421"
       x1="216.70049"
       gradientTransform="scale(1.583127,0.631661)"
       id="linearGradient6833"
       xlink:href="#linearGradient6817"
       inkscape:collect="always" />
    <linearGradient
       gradientUnits="userSpaceOnUse"
       y2="687.92188"
       x2="216.70049"
       y1="-53.053421"
       x1="216.70049"
       gradientTransform="scale(1.583127,0.631661)"
       id="linearGradient6835"
       xlink:href="#linearGradient6817"
       inkscape:collect="always" />
    <linearGradient
       gradientUnits="userSpaceOnUse"
       y2="687.92188"
       x2="216.70049"
       y1="-53.053421"
       x1="216.70049"
       gradientTransform="scale(1.583127,0.631661)"
       id="linearGradient6837"
       xlink:href="#linearGradient6817"
       inkscape:collect="always" />
    <linearGradient
       y2="687.92188"
       x2="216.70049"
       y1="-53.053421"
       x1="216.70049"
       gradientTransform="scale(1.583127,0.631661)"
       gradientUnits="userSpaceOnUse"
       id="linearGradient9926"
       xlink:href="#linearGradient6817"
       inkscape:collect="always" />
    <linearGradient
       y2="687.92188"
       x2="216.70049"
       y1="-53.053421"
       x1="216.70049"
       gradientTransform="scale(1.583127,0.631661)"
       gradientUnits="userSpaceOnUse"
       id="linearGradient9929"
       xlink:href="#linearGradient6817"
       inkscape:collect="always" />
    <linearGradient
       y2="687.92188"
       x2="216.70049"
       y1="-53.053421"
       x1="216.70049"
       gradientTransform="scale(1.583127,0.631661)"
       gradientUnits="userSpaceOnUse"
       id="linearGradient9932"
       xlink:href="#linearGradient6817"
       inkscape:collect="always" />
    <linearGradient
       y2="687.92188"
       x2="216.70049"
       y1="-53.053421"
       x1="216.70049"
       gradientTransform="scale(1.583127,0.631661)"
       gradientUnits="userSpaceOnUse"
       id="linearGradient9935"
       xlink:href="#linearGradient6817"
       inkscape:collect="always" />
    <linearGradient
       y2="687.92188"
       x2="216.70049"
       y1="-53.053421"
       x1="216.70049"
       gradientTransform="scale(1.583127,0.631661)"
       gradientUnits="userSpaceOnUse"
       id="linearGradient9938"
       xlink:href="#linearGradient6817"
       inkscape:collect="always" />
    <linearGradient
       y2="687.92188"
       x2="216.70049"
       y1="-53.053421"
       x1="216.70049"
       gradientTransform="scale(1.583127,0.631661)"
       gradientUnits="userSpaceOnUse"
       id="linearGradient9941"
       xlink:href="#linearGradient6817"
       inkscape:collect="always" />
    <linearGradient
       y2="687.92188"
       x2="216.70049"
       y1="-53.053421"
       x1="216.70049"
       gradientTransform="scale(1.583127,0.631661)"
       gradientUnits="userSpaceOnUse"
       id="linearGradient9944"
       xlink:href="#linearGradient6817"
       inkscape:collect="always" />
    <linearGradient
       y2="687.92188"
       x2="216.70049"
       y1="-53.053421"
       x1="216.70049"
       gradientTransform="scale(1.583127,0.631661)"
       gradientUnits="userSpaceOnUse"
       id="linearGradient9947"
       xlink:href="#linearGradient6817"
       inkscape:collect="always" />
    <linearGradient
       y2="848.7569"
       x2="98.874992"
       y1="556.32819"
       x1="4.9757171"
       gradientTransform="scale(2.121916,0.471272)"
       gradientUnits="userSpaceOnUse"
       id="linearGradient9950"
       xlink:href="#linearGradient3751"
       inkscape:collect="always" />
    <linearGradient
       y2="870.97784"
       x2="134.29718"
       y1="366.6221"
       x1="228.32127"
       gradientTransform="scale(1.657739,0.603231)"
       gradientUnits="userSpaceOnUse"
       id="linearGradient9953"
       xlink:href="#linearGradient2205"
       inkscape:collect="always" />
    <linearGradient
       y2="616.15045"
       x2="91.528717"
       y1="91.104607"
       x1="91.528717"
       gradientTransform="matrix(1.392028,0,0,0.718376,179.4184,-99.39007)"
       gradientUnits="userSpaceOnUse"
       id="linearGradient9957"
       xlink:href="#linearGradient3733"
       inkscape:collect="always" />
    <linearGradient
       gradientUnits="userSpaceOnUse"
       y2="79.44725"
       x2="34.117889"
       y1="-25.769123"
       x1="34.117889"
       gradientTransform="scale(1.579427,0.633141)"
       id="linearGradient11512"
       xlink:href="#linearGradient6817"
       inkscape:collect="always" />
    <linearGradient
       y2="687.92188"
       x2="216.70049"
       y1="-53.053421"
       x1="216.70049"
       gradientTransform="matrix(1.583127,0,0,0.631661,0,-2.58156)"
       gradientUnits="userSpaceOnUse"
       id="linearGradient11522"
       xlink:href="#linearGradient6817"
       inkscape:collect="always" />
    <linearGradient
       y2="687.92188"
       x2="216.70049"
       y1="-53.053421"
       x1="216.70049"
       gradientTransform="scale(1.583127,0.631661)"
       gradientUnits="userSpaceOnUse"
       id="linearGradient11525"
       xlink:href="#linearGradient6817"
       inkscape:collect="always" />
    <linearGradient
       y2="687.92188"
       x2="216.70049"
       y1="-53.053421"
       x1="216.70049"
       gradientTransform="matrix(1.583127,0,0,0.631661,2.58156,-5.16312)"
       gradientUnits="userSpaceOnUse"
       id="linearGradient11528"
       xlink:href="#linearGradient6817"
       inkscape:collect="always" />
    <linearGradient
       y2="687.92188"
       x2="216.70049"
       y1="-53.053421"
       x1="216.70049"
       gradientTransform="matrix(1.583127,0,0,0.631661,5.163121,1.29078)"
       gradientUnits="userSpaceOnUse"
       id="linearGradient11531"
       xlink:href="#linearGradient6817"
       inkscape:collect="always" />
    <linearGradient
       y2="687.92188"
       x2="216.70049"
       y1="-53.053421"
       x1="216.70049"
       gradientTransform="scale(1.583127,0.631661)"
       gradientUnits="userSpaceOnUse"
       id="linearGradient11534"
       xlink:href="#linearGradient6817"
       inkscape:collect="always" />
    <linearGradient
       y2="687.92188"
       x2="216.70049"
       y1="-53.053421"
       x1="216.70049"
       gradientTransform="scale(1.583127,0.631661)"
       gradientUnits="userSpaceOnUse"
       id="linearGradient11537"
       xlink:href="#linearGradient6817"
       inkscape:collect="always" />
    <linearGradient
       y2="687.92188"
       x2="216.70049"
       y1="-53.053421"
       x1="216.70049"
       gradientTransform="matrix(1.450996,0,0,0.471725,46.2395,62.30071)"
       gradientUnits="userSpaceOnUse"
       id="linearGradient11540"
       xlink:href="#linearGradient6817"
       inkscape:collect="always" />
    <linearGradient
       y2="687.92188"
       x2="216.70049"
       y1="-53.053421"
       x1="216.70049"
       gradientTransform="scale(1.583127,0.631661)"
       gradientUnits="userSpaceOnUse"
       id="linearGradient11543"
       xlink:href="#linearGradient6817"
       inkscape:collect="always" />
    <linearGradient
       y2="848.7569"
       x2="98.874992"
       y1="556.32819"
       x1="4.9757171"
       gradientTransform="matrix(2.126123,0,0,0.471272,-1.293339,0)"
       gradientUnits="userSpaceOnUse"
       id="linearGradient11546"
       xlink:href="#linearGradient3751"
       inkscape:collect="always" />
    <linearGradient
       y2="870.97784"
       x2="134.29718"
       y1="366.6221"
       x1="228.32127"
       gradientTransform="matrix(1.664383,0,0,0.603231,-2.591907,0)"
       gradientUnits="userSpaceOnUse"
       id="linearGradient11549"
       xlink:href="#linearGradient2205"
       inkscape:collect="always" />
    <linearGradient
       y2="616.15045"
       x2="91.528717"
       y1="91.104607"
       x1="91.528717"
       gradientTransform="matrix(1.394823,0,0,1.0443381,178.4827,-148.16403)"
       gradientUnits="userSpaceOnUse"
       id="linearGradient11553"
       xlink:href="#linearGradient3733"
       inkscape:collect="always" />
  </defs>
  <sodipodi:namedview
     inkscape:window-y="45"
     inkscape:window-x="0"
     inkscape:window-height="970"
     inkscape:window-width="1920"
     inkscape:document-units="px"
     inkscape:current-layer="layer1"
     inkscape:cy="242.1297"
     inkscape:cx="259.88618"
     inkscape:zoom="0.94465047"
     inkscape:pageshadow="2"
     inkscape:pageopacity="0.0"
     borderopacity="1.0"
     bordercolor="#666666"
     pagecolor="#ffffff"
     id="base"
     inkscape:document-rotation="0"
     showgrid="false"
     fit-margin-top="0"
     fit-margin-left="0"
     fit-margin-right="-0.1"
     fit-margin-bottom="0"
     inkscape:window-maximized="1" />
  <metadata
     id="metadata4">
    <rdf:RDF>
      <cc:Work
         rdf:about="">
        <dc:format>image/svg+xml</dc:format>
        <dc:type
           rdf:resource="http://purl.org/dc/dcmitype/StillImage" />
        <dc:title></dc:title>
      </cc:Work>
    </rdf:RDF>
  </metadata>
  <g
     inkscape:groupmode="layer"
     inkscape:label="Layer 1"
     id="layer1"
     transform="translate(-1.2907571,0.17022459)">
    <rect
       y="-0.17022459"
       x="1.2907571"
       height="482.25311"
       width="644.0993"
       id="rect2973"
       style="fill:url(#linearGradient11553);fill-opacity:1;fill-rule:evenodd;stroke:none;stroke-width:16.8147;stroke-linecap:round;stroke-linejoin:miter;stroke-miterlimit:4;stroke-opacity:1" />
    <path
       id="path4525"
       d="m 0,259.27659 c 3.1494142,-0.60526 16.786963,0.002 21.943263,1.29078 7.843923,1.96099 11.628708,3.88403 15.489361,7.74469 9.583957,9.58395 65.242936,3.87234 80.028366,3.87234 28.48697,0 55.43994,-1.29078 83.90071,-1.29078 13.73795,0 31.9935,-0.52227 45.17731,3.87234 9.80583,3.26861 24.53164,2.58156 34.85106,2.58156 15.77763,0 33.63752,2.08069 49.04965,5.16312 8.23408,1.64681 16.30587,0.52682 24.52482,2.58156 7.9581,1.98952 16.22715,2.58156 24.52482,2.58156 12.73863,0 23.76403,5.16312 34.85107,5.16312 15.73493,0 33.30696,3.87234 49.04964,3.87234 8.22864,0 17.08009,-0.5704 24.52483,1.29078 6.7941,1.69852 13.59829,1.29078 20.65248,1.29078 10.7565,0 21.513,0 32.2695,0 6.70678,0 11.77017,-2.58156 19.3617,-2.58156 8.28308,0 12.51423,-1.19239 18.07093,-2.58156 5.37236,-1.34309 10.43978,-2.60995 15.48936,-3.87234 4.25821,-1.06455 10.91456,-4.01942 15.48936,-5.16312 5.62865,-1.40717 13.52549,0 19.3617,0 6.49604,0 12.24706,3.21159 15.48936,6.4539 3.22696,3.22695 3.22696,9.68085 6.45391,12.9078 6.6091,6.6091 -1.1767,8.33303 -7.74469,11.61702 -14.71907,7.35954 -37.66269,7.74468 -54.21276,7.74468 -26.83254,0 -54.09045,2.58156 -81.31915,2.58156 -37.29678,0 -79.06944,1.99888 -114.87943,-5.16312 -34.72159,-6.94432 -71.58258,-9.03546 -107.13476,-9.03546 -42.23335,0 -83.89748,-2.58156 -126.49645,-2.58156 -27.44599,0 -65.191852,-1.16319 -91.645392,-6.4539 -9.641042,-1.92821 -20.052676,-0.65451 -29.687944,-2.58156 -10.947198,-2.18944 -8.706581,-4.99868 -16.780142,-9.03546 -4.980684,-2.49034 -8.738671,-5.66012 -12.9078011,-7.74468 -4.3516217,-2.17581 -7.51208127,-6.2213 -10.3262412,-9.03546 C -6.4199409,270.92758 0,268.72283 0,259.27659 Z"
       style="fill:#4a5784;fill-opacity:1;fill-rule:evenodd;stroke:none;stroke-width:1px;stroke-linecap:butt;stroke-linejoin:miter;stroke-opacity:1" />
    <path
       id="path1437"
       d="m 1.2959536,267.02128 c 0,0 138.6670364,-23.23405 187.9132764,-18.07093 49.24624,5.16312 226.79188,23.23405 251.415,27.10639 24.62311,3.87234 141.25895,23.23404 156.81039,24.52482 15.55144,1.29078 45.35837,2.58156 45.35837,2.58156 l 3.88786,179.41844 H 0 Z"
       style="fill:url(#linearGradient11549);fill-opacity:1;fill-rule:evenodd;stroke:none;stroke-width:1px;stroke-linecap:butt;stroke-linejoin:miter;stroke-opacity:1" />
    <path
       id="path3743"
       d="m 3.5028318e-7,269.60284 c 0,0 106.05382964971683,-14.19859 137.0939796497168,-14.19859 31.04014,0 333.68154,63.24823 397.05517,83.90071 63.37364,20.65249 124.16059,32.26951 117.69389,40.01419 -6.4667,7.74468 -168.13412,19.3617 -346.61495,20.65248 C 126.74725,401.26241 1.2933396,349.63121 1.2933396,349.63121 Z"
       style="fill:url(#linearGradient11546);fill-opacity:1;fill-rule:evenodd;stroke:none;stroke-width:1px;stroke-linecap:butt;stroke-linejoin:miter;stroke-opacity:1" />
    <path
       id="path6043"
       d="m 631.19149,256.69503 c -4.56044,-6.2263 -8.553,-6.97867 -16.78014,-9.03546 -7.35831,-1.83957 -14.95099,3.14587 -19.3617,6.4539 -5.85143,4.38858 -13.52982,-2.24718 -19.3617,-5.16312 -3.72215,-1.86107 -15.25212,-0.58607 -18.07093,-1.29078 -8.51952,-2.12988 -9.60407,-1.29078 -18.07092,-1.29078 -6.23255,0 -12.31922,-1.43792 -18.07092,0 -6.06574,1.51644 -14.34498,0 -20.65248,0 -8.22851,0 -16.08289,-1.29078 -24.52482,-1.29078 -9.03547,0 -18.07093,0 -27.10639,0 -7.7745,0 -15.23283,0.77366 -21.94326,-2.58156 -8.05443,-4.02721 -15.3386,1.29078 -23.23404,1.29078 -6.5249,0 -13.00864,-4.40882 -16.78015,-5.16312 -3.67325,-0.73465 -23.4613,3.87234 -30.97872,3.87234 -8.57287,0 16.11843,6.06341 24.52482,7.74468 10.09186,2.01837 16.38162,0 25.81561,0 5.55046,0 12.52465,7.36153 16.78014,11.61702 5.38496,5.38497 15.98249,3.87235 24.52482,3.87235 9.26199,0 11.1982,-2.15417 18.07092,-3.87235 8.70524,-2.1763 20.8867,0 29.68795,0 8.86984,0 9.89218,0.84532 11.61702,7.74469 2.21699,8.86795 9.58975,4.24058 15.48936,1.29078 7.61915,-3.80958 15.92917,-3.05001 14.19858,3.87234 -2.25029,9.00117 3.74346,5.87295 7.74468,3.87234 4.8624,-2.4312 12.29535,-1.29078 18.07093,-1.29078 7.67506,0 12.63248,0.27531 16.78014,-3.87234 0.54331,-0.54332 9.31026,7.74468 14.19858,7.74468 9.2089,0 20.80841,-2.69851 25.8156,-6.4539 5.25276,-3.93958 6.62723,-6.73327 12.9078,-5.16312 9.47257,2.36814 6.0456,-9.97325 -1.29078,-12.90781 z"
       style="fill:url(#linearGradient11543);fill-opacity:1;fill-rule:evenodd;stroke:none;stroke-width:1px;stroke-linecap:butt;stroke-linejoin:miter;stroke-opacity:1" />
    <path
       id="path6045"
       d="m 551.40127,227.97394 c 6.04905,1.2322 -13.33676,-1.22733 -17.74573,-4.81978 -6.05823,-4.93628 -8.86872,-7.71164 -17.74573,-7.71164 -9.46645,0 -19.3129,3.85582 -29.57621,3.85582 -6.55983,0 -8.93965,-1.92791 -16.56269,-1.92791 -7.48453,0 -11.0611,-1.30102 -15.37963,-4.81978 -6.23637,-5.08144 -9.22541,-6.86259 -17.74573,-9.63955 -5.6234,-1.8328 -8.28134,-4.30418 -8.28134,-9.63956 0,-6.65512 -11.72542,-13.32415 -14.19658,-17.3512 -1.96812,-3.20726 2.79499,-13.23036 3.54915,-14.45933 1.9097,-3.11207 13.86915,-7.16297 16.56268,-7.71164 8.15997,-1.6622 18.23472,-0.96396 27.21011,-0.96396 8.48865,0 13.41114,17.67318 26.02708,20.24307 5.92434,1.2068 9.79338,-2.95889 14.19658,-3.85583 6.13,-1.24868 3.156,-2.2453 1.18305,-8.67559 -1.31462,-4.28462 -12.84212,-9.49989 -17.74573,-13.49538 -3.95647,-3.22376 -10.5278,-5.03639 -14.19659,-5.78373 -5.78958,-1.17936 -7.75242,-2.89187 -15.37963,-2.89187 -9.80206,0 -13.56557,3.40601 -18.92878,-0.96395 -4.65192,-3.79043 2.60205,-11.75973 3.54915,-12.53143 3.60127,-2.93434 10.18671,-4.44437 13.01353,-6.74769 3.03436,-2.47241 15.95379,-0.60601 18.92878,0 5.5377,1.12804 2.13507,7.18261 9.4644,8.6756 1.58447,0.32276 9.56089,-2.89186 14.19658,-2.89186 5.64622,0 4.57322,8.41653 7.09829,12.53142 3.45804,5.63526 7.70766,8.36397 15.37963,12.53142 8.99571,4.8865 8.28134,2.64718 8.28134,12.53142 0,5.27115 -1.18305,7.90905 -1.18305,13.49538 0,5.70181 5.77294,6.74768 13.01353,6.74768 6.99981,0 11.0492,-4.47431 13.01354,1.92791 1.68344,5.4867 -1.94721,7.43033 1.18305,12.53143 3.93653,6.415 15.74972,-1.56706 9.46439,8.6756 -1.91341,3.11811 15.73033,1.92791 21.29488,1.92791 7.6306,0 8.98024,1.13894 11.83048,5.78373 2.81123,4.58121 5.61653,3.55398 11.83049,4.81978 8.28992,1.68867 9.75489,1.80956 2.36609,4.81978 -4.86106,1.98041 -9.23431,4.29093 -16.56268,5.78373 -6.36295,1.29614 -9.50358,1.92791 -16.56267,1.92791 -5.91525,0 -11.83049,0 -17.74574,0 -2.49408,0 -4.7322,-1.28527 -7.09829,-1.92791 z"
       style="fill:url(#linearGradient11540);fill-opacity:1;fill-rule:evenodd;stroke:none;stroke-width:1px;stroke-linecap:butt;stroke-linejoin:miter;stroke-opacity:1" />
    <path
       id="path6047"
       d="m 387.23404,177.95744 c -8.08385,0 -4.61009,-16.22711 -10.32624,-21.94326 -8.19945,-8.19945 -46.61161,-12.33368 -49.04964,-2.58156 -2.19958,8.79831 2.59243,11.63877 5.16312,16.78014 5.32902,10.65804 3.83441,12.90781 20.65248,12.90781 10.24177,0 17.73199,3.70287 25.8156,7.74468 19.21248,9.60623 14.1657,-4.88153 7.74468,-12.90781 z"
       style="fill:url(#linearGradient11537);fill-opacity:1;fill-rule:evenodd;stroke:none;stroke-width:1px;stroke-linecap:butt;stroke-linejoin:miter;stroke-opacity:1" />
    <path
       id="path6049"
       d="m 376.9078,206.35461 c 5.82363,2.91181 -13.04509,-1.00241 -19.3617,-2.58156 -9.268,-2.317 -17.56879,-3.37021 -21.94326,-7.74468 -4.63903,-4.63903 -7.14801,-5.85723 -11.61702,-10.32624 -4.87567,-4.87567 -15.59798,-5.16312 -23.23405,-5.16312 -1.00652,0 -9.34849,-9.3485 -10.32624,-10.32625 -5.377,-5.377 -9.75283,-11.97571 -19.3617,-16.78014 -8.13475,-4.06737 -11.46524,-4.15709 -20.65248,-6.4539 -0.165,-0.0413 -10.37576,11.00877 -12.9078,12.9078 -4.89764,3.67323 -12.6585,3.1023 -16.78014,5.16312 -6.14577,3.07289 -3.74206,12.13815 -2.58156,16.78015 1.72125,6.88501 -2.50838,10.34453 7.74468,12.9078 7.17858,1.79464 17.16402,0 24.52482,0 7.83064,0 16.1777,0.4733 23.23404,-1.29078 6.57525,-1.64382 12.38233,-1.15942 18.07092,-2.58156 5.41905,-1.35477 13.29815,3.42212 16.78015,5.16312 6.33545,3.16773 14.26755,5.19761 19.3617,7.74468 6.3641,3.18205 8.38932,3.87234 16.78014,3.87234 8.24055,0 17.10776,1.04999 23.23404,2.58156 5.27915,1.31979 4.48208,7.51113 9.03546,-3.87234 z"
       style="fill:url(#linearGradient11534);fill-opacity:1;fill-rule:evenodd;stroke:none;stroke-width:1px;stroke-linecap:butt;stroke-linejoin:miter;stroke-opacity:1" />
    <path
       id="path6051"
       d="m 627.31915,127.61702 c 6.84609,1.71152 -10.46836,-9.75191 -16.78014,-12.9078 -5.64313,-2.82157 -15.2346,-2.58156 -21.94326,-2.58156 -4.97466,0 -9.19866,-8.39254 -11.61702,-11.61702 -4.15254,-5.536721 -4.01874,-7.451886 -1.29078,-12.907806 2.46999,-4.939993 9.25507,-3.87234 15.48936,-3.87234 8.80031,0 9.01092,7.42812 18.07092,5.16312 6.29157,-1.572892 4.72152,-6.4539 12.9078,-6.4539 9.57176,0 13.3208,3.87234 20.65248,3.87234 7.62178,0 5.649,10.964306 5.16312,12.907802 -1.50523,6.020924 -1.29078,11.077854 -1.29078,18.070924 0,6.4539 0,12.9078 0,19.3617 0,11.0637 -2.47725,6.5582 -6.4539,2.58156 -2.1668,-2.16681 -4.84487,-3.5541 -6.4539,-5.16312"
       style="fill:url(#linearGradient11531);fill-opacity:1;fill-rule:evenodd;stroke:none;stroke-width:1px;stroke-linecap:butt;stroke-linejoin:miter;stroke-opacity:1" />
    <path
       id="path6053"
       d="m 645.39007,32.099289 c -1.39645,-1.396457 -23.65906,-1.07434 -29.68794,-2.581561 -5.50002,-1.375004 -9.5184,-2.78352 -15.48936,-1.29078 -8.01654,2.004136 -8.77398,4.003081 -14.19858,1.29078 -5.39202,-2.69601 -8.65176,-15.105661 -12.9078,-19.361702 -4.73638,-4.7363785 -9.59487,-4.0551855 -15.48937,-2.5815604 -4.12738,1.031845 7.25723,19.6775814 7.74469,20.6524824 3.11548,6.230971 7.74468,0.374554 7.74468,11.617022 0,8.95919 -10.50241,7.74468 -19.36171,7.74468 -9.36035,0 -9.41752,1.817439 -12.9078,-5.16312 -3.14207,-6.28414 -6.69738,-7.482857 -12.9078,-9.035461 -8.76234,-2.190585 -10.64227,1.949498 -14.19858,-5.163121 -4.08663,-8.173268 -4.11997,-12.412547 -1.29078,-18.070922 2.82684,-5.653687 5.16312,-8.217597 5.16312,-15.4893622 0,-1.1227824 29.85465,2.5815603 36.14184,2.5815603 7.74468,0 15.48937,0 23.23405,0 8.17494,0 16.34988,0 24.52482,0 7.74468,0 15.48936,0 23.23404,0 7.38978,0 10.69235,-1.2907802 18.07092,-1.2907802 6.55147,0 3.87234,10.8731027 3.87234,16.7801421"
       style="fill:url(#linearGradient11528);fill-opacity:1;fill-rule:evenodd;stroke:none;stroke-width:1px;stroke-linecap:butt;stroke-linejoin:miter;stroke-opacity:1" />
    <path
       id="path6055"
       d="m 117.46099,122.4539 c 7.09603,0 -13.76832,-3.44208 -20.652479,-5.16312 -9.241347,-2.31034 -19.481456,-2.58156 -29.687943,-2.58156 -18.579368,0 5.331802,3.92857 12.907801,6.4539 1.682972,0.56099 3.442081,0.86052 5.163121,1.29078 5.337789,1.33445 25.15214,3.87234 11.617021,3.87234 -12.452432,0 -29.985641,12.80781 -30.978723,16.78014 -0.112102,0.44841 21.285871,1.29078 41.304962,1.29078 2.88627,0 -10.630951,3.87234 -7.744678,3.87234 13.426228,0 26.343758,5.16312 40.014188,5.16312 18.41672,0 -2.59579,0.003 -9.03546,1.29078 -11.17052,2.23411 22.50867,3.691 33.56028,6.4539 10.54277,2.6357 25.03912,-6.32532 3.87234,-11.61702 -16.94586,-4.23646 -24.94765,2.18105 -28.39716,-11.61702 -1.31992,-5.27966 22.41289,-2.11193 12.9078,-11.61702 -1.8719,-1.8719 -16.36215,-3.44515 -18.07092,-3.87234 C 129.57431,121.28719 126.14379,116 121.33333,116 c -0.86052,0 1.72104,0 2.58156,0"
       style="fill:url(#linearGradient11525);fill-opacity:1;fill-rule:evenodd;stroke:none;stroke-width:1px;stroke-linecap:butt;stroke-linejoin:miter;stroke-opacity:1" />
    <path
       id="path6057"
       d="m 216.85107,-0.1702157 c -2.26583,0 19.75079,-1.8317956 40.01418,10.3262417 6.96124,4.176743 -13.39141,9.277263 -20.65248,12.907801 -11.95371,5.976852 42.20427,1.29078 50.34042,1.29078 11.8102,0 20.45166,-3.771927 7.74468,2.581561 -21.3486,10.674304 -35.04649,12.907801 -3.87234,12.907801 18.92208,0 34.65751,-2.388 28.39717,3.872341 -0.43078,0.430777 26.35772,-2.717092 5.16312,2.58156 -1.72104,0.43026 -3.44208,0.86052 -5.16312,1.29078 -9.48483,2.371206 14.14775,9.035461 18.07092,9.035461 14.44587,0 60.46886,14.79452 63.24823,15.489362 8.40028,2.100071 -16.02948,-6.813974 -23.23405,-11.617021 -6.71519,-4.476798 -11.65738,-8.410252 -18.07092,-11.617022 -6.7984,-3.399199 -19.14205,-5.218034 -9.03546,-7.744681 14.25737,-3.564342 11.29665,-1.717943 3.87234,-11.617021 -2.38008,-3.173441 -5.97067,-5.487446 -7.74468,-9.035461 -0.15579,-0.311573 42.13544,8.862847 42.59575,9.035461 1.66105,0.622896 3.44208,0.86052 5.16312,1.29078 0.66965,0.167415 -17.20784,-11.615481 -25.81561,-16.780142 -1.64997,-0.989983 -3.44208,-1.72104 -5.16312,-2.58156 -12.19089,-6.0954474 3.20229,-2.5815603 11.61702,-2.5815603 9.50771,0 -0.0213,-9.0567885 -1.29078,-10.3262415"
       style="fill:url(#linearGradient11522);fill-opacity:1;fill-rule:evenodd;stroke:none;stroke-width:1px;stroke-linecap:butt;stroke-linejoin:miter;stroke-opacity:1" />
    <path
       id="path8355"
       d="m 434.27946,158.56914 c -4.30838,1.08856 -7.49918,4.19843 -9.46439,10.60351 -1.62198,5.28638 1.50324,9.1974 3.54914,12.53142 4.95955,8.08215 -2.38365,8.6756 14.19659,8.6756 6.70394,0 13.40788,0 20.11182,0 6.15447,0 15.41314,4.63245 22.47793,5.78374 9.66516,1.57504 17.67031,8.92142 20.11183,0.96396 2.28228,-7.4385 2.30139,-7.71165 14.19658,-7.71165 14.60009,0 30.4546,3.82681 33.12536,12.53142 1.34955,4.3985 8.28134,9.17855 8.28134,1.92791 0,-6.24658 -13.62263,-9.04781 -17.74573,-11.56747 -4.17354,-2.55046 -1.72098,-12.00577 -7.09829,-16.38724 -6.61255,-5.38794 -21.29488,-1.47646 -21.29488,-9.63955 0,-7.01027 4.09973,-11.63419 0,-18.31515 -3.42433,-5.58035 -6.40323,-5.58493 -10.64743,-3.85583 -2.37923,0.96931 0.91373,15.5095 1.18305,16.38725 1.98827,6.48022 -0.92595,6.64294 -8.28134,9.63955 -8.99583,3.66492 -22.66473,-2.40482 -29.57623,-5.78373 -6.57042,-3.21218 -4.97241,-8.00157 -13.01353,-9.63956 -10.0173,-2.04054 -13.08302,3.85582 -20.11182,3.85582 z"
       style="fill:#ffffff;fill-opacity:0.772727;fill-rule:evenodd;stroke:none;stroke-width:1px;stroke-linecap:butt;stroke-linejoin:miter;stroke-opacity:1" />
    <path
       id="path9115"
       d="m 255.57447,154.7234 c -4.10793,-2.9807 -13.0262,-3.75394 -18.07092,1.29078 -5.42006,5.42006 -3.52362,9.03546 -12.9078,9.03546 -9.82764,0 -8.25607,4.14036 -5.16312,10.32624 2.26026,4.52054 20.97082,2.58156 25.8156,2.58156 6.4539,0 12.9078,0 19.3617,0 12.91078,0 16.69068,1.20132 23.23404,7.74469 4.30418,4.30417 -1.01554,-13.09765 -1.29078,-14.19859 -1.7385,-6.95401 -3.98202,-10.43592 -7.74468,-14.19858 -3.72709,-3.72709 -16.5788,-2.58156 -23.23404,-2.58156 z"
       style="fill:#ffffff;fill-opacity:0.590909;fill-rule:evenodd;stroke:none;stroke-width:1px;stroke-linecap:butt;stroke-linejoin:miter;stroke-opacity:1" />
    <path
       id="path9117"
       d="m 411.75887,267.02128 c -5.84015,-5.84016 12.43382,-9.27246 15.48936,-7.74469 8.04668,4.02334 15.26038,2.66743 25.8156,-1.29078 9.2052,-3.45194 15.59177,-0.59418 21.94327,2.58156 5.14518,2.5726 8.9756,3.87234 16.78014,3.87234 9.72922,0 14.24657,-1.24279 20.65248,5.16313 3.40455,3.40454 20.95996,-2.98113 24.52482,-3.87234 8.39968,-2.09992 13.10674,0.39787 15.48936,5.16312 4.9942,9.98838 -4.44459,7.74468 -11.61702,7.74468 -7.31442,0 -14.62884,0 -21.94326,0 -9.89598,0 -19.79196,0 -29.68794,0 -8.21288,0 -14.33965,-3.38424 -23.23405,-5.16312 -6.25863,-1.25173 -12.36116,-2.58156 -21.94326,-2.58156 -6.4539,0 -12.9078,0 -19.3617,0 -5.72624,0 -6.17812,-2.52641 -12.9078,-3.87234 z"
       style="fill:#ffffff;fill-opacity:0.590909;fill-rule:evenodd;stroke:none;stroke-width:1px;stroke-linecap:butt;stroke-linejoin:miter;stroke-opacity:1" />
    <path
       d="m 3.801326,392.15886 c 6.396662,-2.13512 13.284577,-3.61479 19.983082,-4.96542 37.070545,-3.32873 74.306267,-6.69144 111.549562,-7.15723 131.58814,2.01232 262.98988,9.89834 394.5951,11.35462 8.0034,0.0471 16.00675,0.10618 24.01021,0.14147 29.50881,0.13011 58.95011,-0.0805 88.43682,-1.28472 9.03701,-0.36906 43.34721,-7.32197 29.68112,-0.89825 -19.59919,-14.44077 -41.65279,-27.43454 -64.28422,-36.87523 -19.50831,-7.14874 -39.80051,-11.84041 -60.18569,-15.66563 l 6.20379,-4.33018 c 20.39364,3.99385 40.69025,8.84675 60.30873,15.76758 22.87575,9.36348 46.77044,22.07679 66.01364,37.27695 -39.32417,28.69001 -109.83242,-0.64528 -154.76623,9.18732 -131.92392,-2.15403 -263.69392,-10.17164 -395.64846,-10.56495 -37.692374,0.8184 -75.370011,4.43238 -112.847199,8.28644 -6.843083,1.41895 -13.6316205,3.26468 -20.3441079,5.02653 z"
       id="path9885"
       style="fill:#324f00;fill-opacity:1;fill-rule:nonzero;stroke:none;stroke-width:1px;stroke-linecap:butt;stroke-linejoin:miter;stroke-opacity:1" />
    <path
       d="m 112.6506,483.55746 c 79.24895,-32.9972 166.83046,-48.78847 252.02632,-57.75471 191.42039,-20.75683 385.58182,-14.01042 575.22807,-50.26415 6.87936,-1.42766 13.75872,-2.85531 20.63807,-4.28297 l -12.29262,9.30486 c -6.67733,1.2659 -13.35467,2.53181 -20.03201,3.79771 -189.98679,33.46007 -383.95763,27.67905 -575.20901,50.11667 -85.91896,9.69429 -174.78766,25.24571 -254.194412,60.14976 z"
       id="path9909"
       style="fill:#324f00;fill-opacity:1;fill-rule:nonzero;stroke:none;stroke-width:1px;stroke-linecap:butt;stroke-linejoin:miter;stroke-opacity:1" />
    <path
       d="m 417.40501,489.48238 c 101.44011,-33.75739 208.49902,-36.84603 314.30754,-41.2778 33.30066,-2.01975 66.55774,-4.66515 99.8147,-7.2877 l -11.3734,8.39397 c -33.16492,2.35449 -66.31958,4.85449 -99.49911,6.99862 -106.93718,4.47618 -215.23952,8.51659 -317.34592,43.95168 z"
       id="path9911"
       style="fill:#324f00;fill-opacity:1;fill-rule:nonzero;stroke:none;stroke-width:1px;stroke-linecap:butt;stroke-linejoin:miter;stroke-opacity:1" />
    <path
       d="m 169.16321,387.13192 c -45.97221,0.75084 -90.937958,11.04292 -135.037685,23.26923 -35.8363496,9.68813 -70.930192,22.24493 -104.002592,39.17441 l 6.519284,-5.21918 C -30.47992,427.98034 4.2939027,415.80192 39.689858,406.12302 84.383501,393.64448 129.94383,383.77398 176.45707,381.83262 Z"
       id="path9919"
       style="fill:#324f00;fill-opacity:1;fill-rule:nonzero;stroke:none;stroke-width:1px;stroke-linecap:butt;stroke-linejoin:miter;stroke-opacity:1" />
    <path
       id="path10746"
       d="m 1.2907801,14.028366 c 9.0145019,0.38387 27.0931789,6.964931 38.7234049,11.617021 3.947956,1.579183 -1.290781,5.149545 -1.290781,-9.035461 0,-4.04259 12.868665,10.247967 12.907802,10.326241 1.933778,3.867557 9.040245,-3.224558 12.907801,-1.29078 4.487924,2.243962 8.605201,5.163121 12.907802,7.744681 8.589061,5.153437 16.353923,8.46717 16.780142,9.035461 4.618035,6.157381 -8.459511,-13.185561 -10.326241,-20.652482 -0.208517,-0.834066 18.2104,7.011808 15.489362,-3.872341 -2.235984,-8.9439342 18.645618,-0.358043 21.943258,1.290781 6.55721,3.278603 2.45773,0.123832 7.74468,-5.163121 4.95033,-4.9503237 2.58157,-9.5808725 2.58157,-11.6170214 0,-4.6283768 -16.97142,-3.8723404 -20.65249,-3.8723404 -9.93521,0 -16.569116,-3.8723405 -24.52482,-3.8723405 -10.472159,0 -25.088499,-3.8723404 -37.432624,-3.8723404 -8.605201,0 -17.210402,0 -25.815603,0 -9.961157,0 -13.3358154,1.5047869 -20.6524827,5.1631206 -5.6347164,2.8173582 -3.57328261,12.3646659 -1.2907802,18.0709221 z"
       style="fill:url(#linearGradient11512);fill-opacity:1;fill-rule:evenodd;stroke:none;stroke-width:1px;stroke-linecap:butt;stroke-linejoin:miter;stroke-opacity:1" />
  </g>
</svg>
